<?xml version="1.0" encoding="utf-8"?>
<!-- Generator: Adobe Illustrator 18.1.0, SVG Export Plug-In . SVG Version: 6.00 Build 0)  -->
<!DOCTYPE svg PUBLIC "-//W3C//DTD SVG 1.1//EN" "http://www.w3.org/Graphics/SVG/1.1/DTD/svg11.dtd">
<svg version="1.1" id="Layer_1" xmlns="http://www.w3.org/2000/svg" xmlns:xlink="http://www.w3.org/1999/xlink" x="0px" y="0px"
	 viewBox="10 10 250 250" enable-background="new 10 10 250 250" xml:space="preserve">
<title>QR Code</title>
<desc>http://daviesgeek.com</desc>
<rect fill="#FFFFFF" width="270" height="270"/>
<g id="elements">
	<path d="M10,10h10v10H10V10z M20,10h10v10H20V10z M30,10h10v10H30V10z M40,10h10v10H40V10z M50,10h10v10H50V10z M60,10h10v10H60V10
		z M70,10h10v10H70V10z M110,10h10v10h-10V10z M130,10h10v10h-10V10z M140,10h10v10h-10V10z M190,10h10v10h-10V10z M200,10h10v10
		h-10V10z M210,10h10v10h-10V10z M220,10h10v10h-10V10z M230,10h10v10h-10V10z M240,10h10v10h-10V10z M250,10h10v10h-10V10z M10,20
		h10v10H10V20z M70,20h10v10H70V20z M90,20h10v10H90V20z M110,20h10v10h-10V20z M140,20h10v10h-10V20z M150,20h10v10h-10V20z
		 M160,20h10v10h-10V20z M170,20h10v10h-10V20z M190,20h10v10h-10V20z M250,20h10v10h-10V20z M10,30h10v10H10V30z M30,30h10v10H30
		V30z M40,30h10v10H40V30z M50,30h10v10H50V30z M70,30h10v10H70V30z M130,30h10v10h-10V30z M190,30h10v10h-10V30z M210,30h10v10h-10
		V30z M220,30h10v10h-10V30z M230,30h10v10h-10V30z M250,30h10v10h-10V30z M10,40h10v10H10V40z M30,40h10v10H30V40z M40,40h10v10H40
		V40z M50,40h10v10H50V40z M70,40h10v10H70V40z M90,40h10v10H90V40z M100,40h10v10h-10V40z M110,40h10v10h-10V40z M130,40h10v10h-10
		V40z M140,40h10v10h-10V40z M150,40h10v10h-10V40z M190,40h10v10h-10V40z M210,40h10v10h-10V40z M220,40h10v10h-10V40z M230,40h10
		v10h-10V40z M250,40h10v10h-10V40z M10,50h10v10H10V50z M30,50h10v10H30V50z M40,50h10v10H40V50z M50,50h10v10H50V50z M70,50h10v10
		H70V50z M100,50h10v10h-10V50z M170,50h10v10h-10V50z M190,50h10v10h-10V50z M210,50h10v10h-10V50z M220,50h10v10h-10V50z M230,50
		h10v10h-10V50z M250,50h10v10h-10V50z M10,60h10v10H10V60z M70,60h10v10H70V60z M90,60h10v10H90V60z M100,60h10v10h-10V60z M120,60
		h10v10h-10V60z M130,60h10v10h-10V60z M140,60h10v10h-10V60z M160,60h10v10h-10V60z M170,60h10v10h-10V60z M190,60h10v10h-10V60z
		 M250,60h10v10h-10V60z M10,70h10v10H10V70z M20,70h10v10H20V70z M30,70h10v10H30V70z M40,70h10v10H40V70z M50,70h10v10H50V70z
		 M60,70h10v10H60V70z M70,70h10v10H70V70z M90,70h10v10H90V70z M110,70h10v10h-10V70z M130,70h10v10h-10V70z M150,70h10v10h-10V70z
		 M170,70h10v10h-10V70z M190,70h10v10h-10V70z M200,70h10v10h-10V70z M210,70h10v10h-10V70z M220,70h10v10h-10V70z M230,70h10v10
		h-10V70z M240,70h10v10h-10V70z M250,70h10v10h-10V70z M100,80h10v10h-10V80z M110,80h10v10h-10V80z M120,80h10v10h-10V80z M150,80
		h10v10h-10V80z M160,80h10v10h-10V80z M170,80h10v10h-10V80z M10,90h10v10H10V90z M20,90h10v10H20V90z M30,90h10v10H30V90z M40,90
		h10v10H40V90z M50,90h10v10H50V90z M70,90h10v10H70V90z M80,90h10v10H80V90z M90,90h10v10H90V90z M100,90h10v10h-10V90z M120,90h10
		v10h-10V90z M140,90h10v10h-10V90z M150,90h10v10h-10V90z M160,90h10v10h-10V90z M180,90h10v10h-10V90z M200,90h10v10h-10V90z
		 M220,90h10v10h-10V90z M240,90h10v10h-10V90z M10,100h10v10H10V100z M50,100h10v10H50V100z M110,100h10v10h-10V100z M130,100h10
		v10h-10V100z M140,100h10v10h-10V100z M170,100h10v10h-10V100z M180,100h10v10h-10V100z M200,100h10v10h-10V100z M240,100h10v10
		h-10V100z M20,110h10v10H20V110z M30,110h10v10H30V110z M40,110h10v10H40V110z M50,110h10v10H50V110z M70,110h10v10H70V110z
		 M90,110h10v10H90V110z M110,110h10v10h-10V110z M140,110h10v10h-10V110z M150,110h10v10h-10V110z M160,110h10v10h-10V110z
		 M170,110h10v10h-10V110z M180,110h10v10h-10V110z M190,110h10v10h-10V110z M200,110h10v10h-10V110z M220,110h10v10h-10V110z
		 M240,110h10v10h-10V110z M250,110h10v10h-10V110z M40,120h10v10H40V120z M60,120h10v10H60V120z M80,120h10v10H80V120z M130,120h10
		v10h-10V120z M150,120h10v10h-10V120z M160,120h10v10h-10V120z M170,120h10v10h-10V120z M250,120h10v10h-10V120z M10,130h10v10H10
		V130z M20,130h10v10H20V130z M30,130h10v10H30V130z M50,130h10v10H50V130z M70,130h10v10H70V130z M80,130h10v10H80V130z M100,130
		h10v10h-10V130z M110,130h10v10h-10V130z M130,130h10v10h-10V130z M140,130h10v10h-10V130z M150,130h10v10h-10V130z M160,130h10v10
		h-10V130z M180,130h10v10h-10V130z M190,130h10v10h-10V130z M210,130h10v10h-10V130z M230,130h10v10h-10V130z M240,130h10v10h-10
		V130z M250,130h10v10h-10V130z M10,140h10v10H10V140z M20,140h10v10H20V140z M30,140h10v10H30V140z M40,140h10v10H40V140z M80,140
		h10v10H80V140z M100,140h10v10h-10V140z M140,140h10v10h-10V140z M170,140h10v10h-10V140z M200,140h10v10h-10V140z M220,140h10v10
		h-10V140z M240,140h10v10h-10V140z M10,150h10v10H10V150z M30,150h10v10H30V150z M40,150h10v10H40V150z M50,150h10v10H50V150z
		 M70,150h10v10H70V150z M100,150h10v10h-10V150z M120,150h10v10h-10V150z M130,150h10v10h-10V150z M150,150h10v10h-10V150z
		 M160,150h10v10h-10V150z M170,150h10v10h-10V150z M220,150h10v10h-10V150z M240,150h10v10h-10V150z M250,150h10v10h-10V150z
		 M10,160h10v10H10V160z M30,160h10v10H30V160z M90,160h10v10H90V160z M100,160h10v10h-10V160z M110,160h10v10h-10V160z M120,160h10
		v10h-10V160z M150,160h10v10h-10V160z M170,160h10v10h-10V160z M180,160h10v10h-10V160z M190,160h10v10h-10V160z M200,160h10v10
		h-10V160z M220,160h10v10h-10V160z M250,160h10v10h-10V160z M10,170h10v10H10V170z M30,170h10v10H30V170z M70,170h10v10H70V170z
		 M80,170h10v10H80V170z M90,170h10v10H90V170z M120,170h10v10h-10V170z M160,170h10v10h-10V170z M170,170h10v10h-10V170z M180,170
		h10v10h-10V170z M190,170h10v10h-10V170z M200,170h10v10h-10V170z M210,170h10v10h-10V170z M230,170h10v10h-10V170z M90,180h10v10
		H90V180z M130,180h10v10h-10V180z M140,180h10v10h-10V180z M160,180h10v10h-10V180z M170,180h10v10h-10V180z M210,180h10v10h-10
		V180z M220,180h10v10h-10V180z M230,180h10v10h-10V180z M10,190h10v10H10V190z M20,190h10v10H20V190z M30,190h10v10H30V190z
		 M40,190h10v10H40V190z M50,190h10v10H50V190z M60,190h10v10H60V190z M70,190h10v10H70V190z M90,190h10v10H90V190z M140,190h10v10
		h-10V190z M150,190h10v10h-10V190z M170,190h10v10h-10V190z M190,190h10v10h-10V190z M210,190h10v10h-10V190z M220,190h10v10h-10
		V190z M230,190h10v10h-10V190z M240,190h10v10h-10V190z M250,190h10v10h-10V190z M10,200h10v10H10V200z M70,200h10v10H70V200z
		 M100,200h10v10h-10V200z M130,200h10v10h-10V200z M140,200h10v10h-10V200z M170,200h10v10h-10V200z M210,200h10v10h-10V200z
		 M220,200h10v10h-10V200z M240,200h10v10h-10V200z M250,200h10v10h-10V200z M10,210h10v10H10V210z M30,210h10v10H30V210z M40,210
		h10v10H40V210z M50,210h10v10H50V210z M70,210h10v10H70V210z M90,210h10v10H90V210z M100,210h10v10h-10V210z M110,210h10v10h-10
		V210z M130,210h10v10h-10V210z M150,210h10v10h-10V210z M160,210h10v10h-10V210z M170,210h10v10h-10V210z M180,210h10v10h-10V210z
		 M190,210h10v10h-10V210z M200,210h10v10h-10V210z M210,210h10v10h-10V210z M220,210h10v10h-10V210z M230,210h10v10h-10V210z
		 M240,210h10v10h-10V210z M250,210h10v10h-10V210z M10,220h10v10H10V220z M30,220h10v10H30V220z M40,220h10v10H40V220z M50,220h10
		v10H50V220z M70,220h10v10H70V220z M90,220h10v10H90V220z M170,220h10v10h-10V220z M180,220h10v10h-10V220z M190,220h10v10h-10V220
		z M210,220h10v10h-10V220z M230,220h10v10h-10V220z M240,220h10v10h-10V220z M250,220h10v10h-10V220z M10,230h10v10H10V230z
		 M30,230h10v10H30V230z M40,230h10v10H40V230z M50,230h10v10H50V230z M70,230h10v10H70V230z M90,230h10v10H90V230z M100,230h10v10
		h-10V230z M120,230h10v10h-10V230z M130,230h10v10h-10V230z M160,230h10v10h-10V230z M200,230h10v10h-10V230z M230,230h10v10h-10
		V230z M250,230h10v10h-10V230z M10,240h10v10H10V240z M70,240h10v10H70V240z M90,240h10v10H90V240z M120,240h10v10h-10V240z
		 M150,240h10v10h-10V240z M170,240h10v10h-10V240z M180,240h10v10h-10V240z M190,240h10v10h-10V240z M200,240h10v10h-10V240z
		 M210,240h10v10h-10V240z M220,240h10v10h-10V240z M250,240h10v10h-10V240z M10,250h10v10H10V250z M20,250h10v10H20V250z M30,250
		h10v10H30V250z M40,250h10v10H40V250z M50,250h10v10H50V250z M60,250h10v10H60V250z M70,250h10v10H70V250z M90,250h10v10H90V250z
		 M120,250h10v10h-10V250z M180,250h10v10h-10V250z M190,250h10v10h-10V250z M200,250h10v10h-10V250z M210,250h10v10h-10V250z
		 M220,250h10v10h-10V250z M230,250h10v10h-10V250z M240,250h10v10h-10V250z M250,250h10v10h-10V250z"/>
</g>
</svg>
